<?xml version="1.0" encoding="UTF-8"?>
<svg version="1.1" xmlns="http://www.w3.org/2000/svg" width="2000" height="2000">
<path d="M0 0 C1.4140841 0.77392424 2.82672224 1.55049075 4.23876953 2.328125 C5.02559113 2.7602832 5.81241272 3.19244141 6.62307739 3.63769531 C10.52459476 5.8738032 14.18472703 8.43501206 17.875 11 C19.81294661 12.33327555 21.75183971 13.66517586 23.69140625 14.99609375 C24.50779823 15.55676796 24.50779823 15.55676796 25.34068298 16.12876892 C34.13007616 22.15746618 42.9754281 28.1040437 51.8125 34.0625 C52.74264923 34.68989075 53.67279846 35.31728149 54.63113403 35.96368408 C66.99994672 44.30518988 79.39108386 52.61205077 91.8125 60.875 C101.20332211 67.12197732 110.56755529 73.40208 119.87451172 79.77368164 C129.70112057 86.49428124 139.56858931 93.15423299 149.4375 99.8125 C150.82198334 100.74672791 150.82198334 100.74672791 152.23443604 101.6998291 C166.53247576 111.34494006 180.87589459 120.92005906 195.23947144 130.4671936 C205.27935582 137.14379831 215.24827809 143.90020081 225.11132812 150.83642578 C234.88038901 157.67511955 244.82293877 164.25157475 254.75390625 170.8515625 C268.94475004 180.28288063 283.08531757 189.7859904 297.20288086 199.32659912 C310.34962232 208.20941212 323.53574967 217.03048652 336.75 225.8125 C347.62167243 233.03828855 358.43284866 240.32674716 369.11132812 247.83642578 C378.87840559 254.67373108 388.8188892 261.24892085 398.74786377 267.84753418 C412.1601774 276.76135827 425.53111378 285.73407402 438.875 294.75 C453.14345211 304.3896166 467.43485696 313.9925729 481.78466797 323.51074219 C489.42174989 328.58142947 497.00464978 333.7263264 504.56478882 338.911026 C513.88621387 345.30058611 523.2540041 351.62095785 532.625 357.9375 C534.01215714 358.87302704 534.01215714 358.87302704 535.42733765 359.82745361 C547.86416452 368.21424138 560.32304121 376.5668141 572.8125 384.875 C582.20332462 391.12197358 591.56755533 397.40208002 600.87451172 403.77368164 C610.70112057 410.49428124 620.56858931 417.15423299 630.4375 423.8125 C631.36048889 424.4353186 632.28347778 425.05813721 633.23443604 425.6998291 C647.53247576 435.34494006 661.87589459 444.92005906 676.23947144 454.4671936 C686.27935582 461.14379831 696.24827809 467.90020081 706.11132812 474.83642578 C715.88038901 481.67511955 725.82293877 488.25157475 735.75390625 494.8515625 C749.94475004 504.28288063 764.08531757 513.7859904 778.20288086 523.32659912 C791.34962232 532.20941212 804.53574967 541.03048652 817.75 549.8125 C828.62167243 557.03828855 839.43284866 564.32674716 850.11132812 571.83642578 C859.05963672 578.10056345 868.15372928 584.14144499 877.25 590.1875 C891.9705461 599.97221292 906.65801463 609.80407776 921.3125 619.6875 C922.23123901 620.30660248 923.14997803 620.92570496 924.09655762 621.56356812 C925.87927199 622.7650227 927.66156323 623.96710539 929.44338989 625.1698761 C931.11100896 626.29489054 932.77996893 627.41792048 934.45040894 628.53874207 C937.7764209 630.77778334 941.07767704 633.02079259 944.26708984 635.45166016 C945.5792749 636.44431885 945.5792749 636.44431885 946.91796875 637.45703125 C947.61043701 638.00979736 948.30290527 638.56256348 949.01635742 639.13208008 C951.00723904 640.23941906 951.00723904 640.23941906 953.28588867 639.46289062 C956.83778723 637.54843743 960.16511182 635.39336768 963.5078125 633.13671875 C964.24867599 632.64183456 964.98953949 632.14695038 965.75285339 631.6370697 C968.21329079 629.99172589 970.66914379 628.33967237 973.125 626.6875 C974.87111017 625.51772642 976.6174527 624.34829961 978.36401367 623.17919922 C992.8453297 613.4779396 1007.28895815 603.72038852 1021.73291016 593.96362305 C1034.99258878 585.00993403 1048.29466809 576.12152664 1061.61593628 567.25979614 C1074.00771489 559.01512449 1086.36179046 550.71695177 1098.69046021 542.37823486 C1114.24711883 531.85622008 1129.86607267 521.43742491 1145.5625 511.125 C1158.44765686 502.65859735 1171.30347861 494.15555517 1184.0625 485.5 C1184.73566254 485.04338989 1185.40882507 484.58677979 1186.10238647 484.11633301 C1189.57873061 481.75754625 1193.05392617 479.39707218 1196.52880859 477.03613281 C1204.96899672 471.3031305 1213.41963558 465.58559099 1221.875 459.875 C1222.77331543 459.26823425 1223.67163086 458.66146851 1224.59716797 458.03631592 C1238.52282806 448.63624637 1252.52122064 439.35129952 1266.5625 430.125 C1279.44751058 421.65836928 1292.30347464 413.15555787 1305.0625 404.5 C1305.73566254 404.04338989 1306.40882507 403.58677979 1307.10238647 403.11633301 C1310.57873061 400.75754625 1314.05392617 398.39707218 1317.52880859 396.03613281 C1325.96899672 390.3031305 1334.41963558 384.58559099 1342.875 378.875 C1343.77331543 378.26823425 1344.67163086 377.66146851 1345.59716797 377.03631592 C1359.52282806 367.63624637 1373.52122064 358.35129952 1387.5625 349.125 C1400.44751058 340.65836928 1413.30347464 332.15555787 1426.0625 323.5 C1426.73566254 323.04338989 1427.40882507 322.58677979 1428.10238647 322.11633301 C1431.57873061 319.75754625 1435.05392617 317.39707218 1438.52880859 315.03613281 C1446.96899672 309.3031305 1455.41963558 303.58559099 1463.875 297.875 C1464.77331543 297.26823425 1465.67163086 296.66146851 1466.59716797 296.03631592 C1480.52282806 286.63624637 1494.52122064 277.35129952 1508.5625 268.125 C1521.44751058 259.65836928 1534.30347464 251.15555787 1547.0625 242.5 C1547.73566254 242.04338989 1548.40882507 241.58677979 1549.10238647 241.11633301 C1552.57873061 238.75754625 1556.05392617 236.39707218 1559.52880859 234.03613281 C1567.96899672 228.3031305 1576.41963558 222.58559099 1584.875 216.875 C1585.77331543 216.26823425 1586.67163086 215.66146851 1587.59716797 215.03631592 C1601.52282806 205.63624637 1615.52122064 196.35129952 1629.5625 187.125 C1642.44751058 178.65836928 1655.30347464 170.15555787 1668.0625 161.5 C1668.73566254 161.04338989 1669.40882507 160.58677979 1670.10238647 160.11633301 C1673.57873061 157.75754625 1677.05392617 155.39707218 1680.52880859 153.03613281 C1688.96899672 147.3031305 1697.41963558 141.58559099 1705.875 135.875 C1706.77331543 135.26823425 1707.67163086 134.66146851 1708.59716797 134.03631592 C1722.52282806 124.63624637 1736.52122064 115.35129952 1750.5625 106.125 C1763.44751058 97.65836928 1776.30347464 89.15555787 1789.0625 80.5 C1789.73566254 80.04338989 1790.40882507 79.58677979 1791.10238647 79.11633301 C1794.57873061 76.75754625 1798.05392617 74.39707218 1801.52880859 72.03613281 C1809.96899639 66.30313073 1818.41956937 60.58549244 1826.875 54.875 C1827.76700104 54.27255463 1828.65900208 53.67010925 1829.57803345 53.04940796 C1848.25856424 40.44114949 1867.06767997 28.03035856 1885.9112854 15.6675415 C1889.80403484 13.11134177 1893.68897837 10.54471655 1897.55664062 7.95068359 C1898.61156708 7.24337349 1898.61156708 7.24337349 1899.68780518 6.52177429 C1900.99683057 5.6424271 1902.30448939 4.7610409 1903.61053467 3.87727356 C1907.89112231 1 1907.89112231 1 1909 1 C1909.02719544 88.16176198 1909.04632473 175.32352494 1909.06185675 304.26818693 C1909.06228286 308.24653574 1909.06271688 312.22488455 1909.06315851 316.20323336 C1909.07466467 419.96589005 1909.07509852 523.72855047 1908.50451323 1158.51823565 C1908.49847729 1163.00753313 1908.49245285 1167.49683062 1908.48642803 1171.98612811 C1908.35406662 1270.60038477 1908.21645962 1369.21463363 1908 1515 C1904.68490814 1513.71261772 1901.91199248 1512.40983498 1899.02734375 1510.32421875 C1898.23424805 1509.75936768 1897.44115234 1509.1945166 1896.62402344 1508.61254883 C1895.7374707 1507.97728271 1894.85091797 1507.3420166 1893.9375 1506.6875 C1882.5411197 1498.6409477 1870.91445401 1490.96363945 1859.25 1483.3125 C1844.03666334 1473.32743251 1828.88625018 1463.25714734 1813.8125 1453.0625 C1812.46339539 1452.15016098 1812.46339539 1452.15016098 1811.08703613 1451.21939087 C1810.19238647 1450.61436737 1809.29773682 1450.00934387 1808.37597656 1449.38598633 C1806.60094163 1448.18566502 1804.82587691 1446.98538775 1803.05078125 1445.78515625 C1802.18939545 1445.20268631 1801.32800964 1444.62021637 1800.44052124 1444.02009583 C1792.48429601 1438.6439354 1784.49660364 1433.3158403 1776.5 1428 C1762.86222165 1418.9325301 1749.2817766 1409.78156736 1735.70996094 1400.61572266 C1723.34381883 1392.26521047 1710.95533523 1383.95031227 1698.52896118 1375.68972778 C1690.31513847 1370.22829988 1682.1202565 1364.74012037 1673.94921875 1359.21484375 C1673.07583359 1358.62429199 1672.20244843 1358.03374023 1671.30259705 1357.42529297 C1669.50539628 1356.20996351 1667.7082112 1354.99461088 1665.91104126 1353.77923584 C1647.98206966 1341.65515677 1629.96788685 1329.66887447 1611.8659668 1317.80444336 C1602.86489632 1311.90051316 1593.92264269 1305.92901021 1585.0690918 1299.80615234 C1577.17281132 1294.348975 1569.20644574 1288.99386207 1561.25 1283.625 C1559.88118179 1282.70089325 1559.88118179 1282.70089325 1558.48471069 1281.75811768 C1542.0262995 1270.65274437 1525.47581433 1259.69087293 1508.87011719 1248.80712891 C1499.86764196 1242.90233246 1490.92399935 1236.92994843 1482.0690918 1230.80615234 C1474.17281155 1225.34897516 1466.20645476 1219.99384829 1458.25 1214.625 C1457.33645752 1214.00826416 1456.42291504 1213.39152832 1455.48168945 1212.75610352 C1439.11176022 1201.71060069 1422.65134056 1190.80626312 1406.13378906 1179.98291016 C1396.26407347 1173.51019331 1386.47050322 1166.94128959 1376.74365234 1160.25585938 C1368.54845864 1154.6237115 1360.30486515 1149.06277909 1352.0625 1143.5 C1350.70492081 1142.58338593 1350.70492081 1142.58338593 1349.31991577 1141.64825439 C1332.91639289 1130.5790526 1316.42010948 1119.65434816 1299.86938477 1108.80664062 C1290.8671495 1102.9020134 1281.92375793 1096.92978147 1273.0690918 1090.80615234 C1265.17281132 1085.348975 1257.20644574 1079.99386207 1249.25 1074.625 C1247.88118179 1073.70089325 1247.88118179 1073.70089325 1246.48471069 1072.75811768 C1230.0262995 1061.65274437 1213.47581433 1050.69087293 1196.87011719 1039.80712891 C1187.86764196 1033.90233246 1178.92399935 1027.92994843 1170.0690918 1021.80615234 C1162.17281132 1016.348975 1154.20644574 1010.99386207 1146.25 1005.625 C1145.33745453 1005.00892883 1144.42490906 1004.39285767 1143.48471069 1003.75811768 C1127.0262995 992.65274437 1110.47581433 981.69087293 1093.87011719 970.80712891 C1084.86764196 964.90233246 1075.92399935 958.92994843 1067.0690918 952.80615234 C1059.17281132 947.348975 1051.20644574 941.99386207 1043.25 936.625 C1042.33745453 936.00892883 1041.42490906 935.39285767 1040.48471069 934.75811768 C1024.0262995 923.65274437 1007.47581433 912.69087293 990.87011719 901.80712891 C981.6321052 895.74753626 972.45118176 889.6218903 963.37182617 883.32666016 C962.80305756 882.93955872 962.23428894 882.55245728 961.64828491 882.15362549 C960.01647042 881.01152756 958.44149254 879.78959606 956.8684082 878.56787109 C955.9218335 878.05047363 954.97525879 877.53307617 954 877 C950.57177441 878.04256688 947.76774715 879.66273542 944.81835938 881.66699219 C944.02562622 882.20225525 943.23289307 882.73751831 942.4161377 883.28900146 C941.56724976 883.86909973 940.71836182 884.449198 939.84375 885.046875 C938.94619995 885.65452698 938.0486499 886.26217896 937.12390137 886.88824463 C934.24623441 888.83773427 931.37298891 890.79362446 928.5 892.75 C925.69671325 894.6530107 922.89251118 896.55466627 920.08816528 898.45611572 C918.20539507 899.73274844 916.32297317 901.00989499 914.44088745 902.28753662 C907.25437197 907.16236581 900.03612797 911.98793711 892.80581665 916.79748535 C884.03948339 922.63163802 875.31184716 928.52251363 866.58666992 934.41796875 C853.91398017 942.97976436 841.23781566 951.53531866 828.5 960 C816.79582244 967.7778918 805.14675085 975.63644887 793.5 983.5 C780.83722696 992.04954008 768.16267709 1000.57875668 755.4375 1009.03515625 C744.75873276 1016.14124769 734.13078489 1023.32239986 723.5 1030.5 C710.83722696 1039.04954008 698.16267709 1047.57875668 685.4375 1056.03515625 C674.75873276 1063.14124769 664.13078489 1070.32239986 653.5 1077.5 C640.83722696 1086.04954008 628.16267709 1094.57875668 615.4375 1103.03515625 C604.75873276 1110.14124769 594.13078489 1117.32239986 583.5 1124.5 C570.83722696 1133.04954008 558.16267709 1141.57875668 545.4375 1150.03515625 C534.75873276 1157.14124769 524.13078489 1164.32239986 513.5 1171.5 C500.83722696 1180.04954008 488.16267709 1188.57875668 475.4375 1197.03515625 C464.75873276 1204.14124769 454.13078489 1211.32239986 443.5 1218.5 C430.83722696 1227.04954008 418.16267709 1235.57875668 405.4375 1244.03515625 C394.75873276 1251.14124769 384.13078489 1258.32239986 373.5 1265.5 C360.83722696 1274.04954008 348.16267709 1282.57875668 335.4375 1291.03515625 C324.75873276 1298.14124769 314.13078489 1305.32239986 303.5 1312.5 C290.83722696 1321.04954008 278.16267709 1329.57875668 265.4375 1338.03515625 C254.75873276 1345.14124769 244.13078489 1352.32239986 233.5 1359.5 C220.83722696 1368.04954008 208.16267709 1376.57875668 195.4375 1385.03515625 C184.75873276 1392.14124769 174.13078489 1399.32239986 163.5 1406.5 C150.83722696 1415.04954008 138.16267709 1423.57875668 125.4375 1432.03515625 C114.75873276 1439.14124769 104.13078489 1446.32239986 93.5 1453.5 C80.85548627 1462.03721192 68.20588266 1470.5645778 55.49023438 1478.99560547 C48.26339949 1483.79667315 41.07973524 1488.65862413 33.90625 1493.5390625 C30.92904587 1495.56075787 27.95150054 1497.58194983 24.97387695 1499.60302734 C22.99933125 1500.94554335 21.02649483 1502.29057695 19.05541992 1503.63818359 C16.29108607 1505.52797762 13.52115087 1507.40928469 10.75 1509.2890625 C9.49104919 1510.15478378 9.49104919 1510.15478378 8.20666504 1511.03799438 C7.04475647 1511.82283707 7.04475647 1511.82283707 5.859375 1512.62353516 C5.18358398 1513.08442535 4.50779297 1513.54531555 3.81152344 1514.02017212 C2 1515 2 1515 -1 1515 C-1.01712492 1433.17577346 -1.03063051 1351.35151266 -0.90820312 1129.69116211 C-0.90760944 1128.91480304 -0.90701576 1128.13844398 -0.90640408 1127.33855888 C-0.87586489 1087.40357069 -0.84362513 1047.46858393 -0.81063638 1007.53359769 C-0.78924744 981.64063472 -0.76832959 955.7476714 -0.74781799 929.85470772 C-0.74712519 928.980365 -0.74643238 928.10602228 -0.74571858 927.20518433 C-0.73938589 919.21288265 -0.73305808 911.22058097 -0.7267361 903.22827929 C-0.71105935 883.4096887 -0.69532194 863.59109817 -0.67954254 843.77250767 C-0.67882609 842.87259364 -0.67810963 841.97267962 -0.67737147 841.04549548 C-0.64298953 797.86618604 -0.60790658 754.68687717 -0.57275391 711.50756836 C-0.56064207 696.62965902 -0.54853343 681.75174968 -0.53643799 666.87384033 C-0.53568724 665.95039356 -0.53493649 665.02694678 -0.534163 664.07551678 C-0.49889337 620.68712403 -0.46414046 577.29873088 -0.42951068 533.91033762 C-0.42724683 531.07392198 -0.42498276 528.23750634 -0.42271865 525.4010907 C-0.40770753 506.59514756 -0.39270509 487.78920442 -0.37770845 468.98326127 C-0.34789966 431.60282106 -0.31804005 394.22238089 -0.28814522 356.84194075 C-0.28672336 355.06404815 -0.28530154 353.28615554 -0.28387975 351.50826294 C-0.22033399 272.04709352 -0.15619893 192.58592459 -0.09179688 113.12475586 C-0.0911972 112.38485292 -0.09059752 111.64494998 -0.08997967 110.88262573 C-0.06002318 73.92175046 -0.03003244 36.96087521 0 0 Z M234 387 C234 631.86 234 876.72 234 1129 C240.15279258 1125.5817819 245.96115125 1122.14240234 251.73828125 1118.1875 C252.55967087 1117.63018188 253.38106049 1117.07286377 254.2273407 1116.49865723 C255.99818294 1115.29704639 257.76799461 1114.09391562 259.53686523 1112.8894043 C264.34758174 1109.61469808 269.16740809 1106.35347938 273.98828125 1103.09375 C274.98425323 1102.42025513 275.98022522 1101.74676025 277.00637817 1101.05285645 C287.2813381 1094.11610988 297.63548459 1087.30188372 308 1080.5 C322.56966667 1070.93441809 337.06728239 1061.27097351 351.5 1051.5 C366.84442158 1041.1118014 382.2710291 1030.85838316 397.76025391 1020.6875 C411.40752338 1011.72295137 424.97897787 1002.65375417 438.5 993.5 C452.9327379 983.72901275 467.43117138 974.06687917 482 964.5 C498.55500773 953.62774502 515.0118872 942.61896563 531.41796875 931.5234375 C543.30949948 923.4818847 555.2344733 915.49319283 567.18847656 907.54486084 C578.58785501 899.96334832 589.9433708 892.31893868 601.28369141 884.64941406 C617.70079358 873.547286 634.19193147 862.5673126 650.75805664 851.68887329 C664.40607011 842.72387444 677.97813123 833.65405096 691.5 824.5 C708.03089395 813.30980105 724.65582806 802.27079024 741.33691406 791.3059082 C743.13217596 790.12583586 744.92742356 788.94574176 746.72265625 787.765625 C747.59276337 787.19369919 748.46287048 786.62177338 749.35934448 786.03251648 C757.84525988 780.45102239 766.30278473 774.82734914 774.75 769.1875 C775.39345367 768.75790985 776.03690735 768.3283197 776.69985962 767.88571167 C780.1343773 765.59217327 783.56778121 763.29697777 787 761 C783.87365543 757.62688899 780.41458673 755.10663493 776.5859375 752.60546875 C775.95213669 752.18574799 775.31833588 751.76602722 774.66532898 751.33358765 C773.29212125 750.42476656 771.91755277 749.51799888 770.54177856 748.61306763 C766.798643 746.15038271 763.06615224 743.67163521 759.33203125 741.1953125 C758.17093086 740.42620293 758.17093086 740.42620293 756.9863739 739.64155579 C748.97742625 734.33245665 741.016207 728.95386992 733.0625 723.5625 C731.64438226 722.60178631 730.22625069 721.64109305 728.80810547 720.68041992 C725.96047491 718.75109305 723.1132045 716.82123594 720.26611328 714.89111328 C713.88857637 710.56822202 707.50609495 706.25264012 701.12399292 701.93649292 C697.58246022 699.54129348 694.04124622 697.14562295 690.5 694.75 C689.08333486 693.79166441 687.66666819 692.83333108 686.25 691.875 C638.08333333 659.29166667 589.91666667 626.70833333 541.75 594.125 C541.04873489 593.65061493 540.34746979 593.17622986 539.62495422 592.68746948 C538.20843959 591.7292387 536.79192551 590.77100709 535.37541199 589.81277466 C531.83142378 587.41536563 528.28742589 585.01797092 524.7434082 582.62060547 C518.3961048 578.32692574 512.04886534 574.03315168 505.70199585 569.73883057 C490.30466884 559.3209416 474.90469995 548.90698428 459.5 538.5 C443.39618357 527.62071218 427.29776245 516.73347034 411.20166016 505.84277344 C404.84407373 501.54125358 398.48602731 497.24041371 392.12802124 492.93951416 C388.58532919 490.5430365 385.04266604 488.14651611 381.5 485.75 C380.08333347 484.79166646 378.66666681 483.83333313 377.25 482.875 C351.75 465.625 326.25 448.375 300.75 431.125 C300.0489061 430.65073578 299.34781219 430.17647156 298.62547302 429.68783569 C297.20721018 428.72841211 295.78896681 427.76895975 294.3707428 426.80947876 C290.85365582 424.43009116 287.33624429 422.05118642 283.81811523 419.67333984 C277.14936401 415.16527548 270.48430512 410.6519777 263.82974243 406.12298584 C260.67017227 403.97303553 257.50886408 401.82564867 254.34741211 399.6784668 C252.83416755 398.64964159 251.32178497 397.61954731 249.81030273 396.58813477 C247.72072599 395.16235257 245.62827719 393.74088446 243.53515625 392.3203125 C242.91496109 391.89545563 242.29476593 391.47059875 241.65577698 391.03286743 C239.10986483 389.31028674 236.93382888 387.97794296 234 387 Z M1674.38671875 393.3203125 C1673.37155182 393.99577118 1673.37155182 393.99577118 1672.33587646 394.68487549 C1670.11793654 396.16221634 1667.90257945 397.64337426 1665.6875 399.125 C1664.55563766 399.88046112 1664.55563766 399.88046112 1663.40090942 400.65118408 C1653.88467421 407.00412114 1644.43053899 413.4292891 1635.08837891 420.03637695 C1628.17187922 424.91535212 1621.13928001 429.60791264 1614.08642578 434.28686523 C1604.79557971 440.45542526 1595.55020298 446.68972447 1586.3125 452.9375 C1585.52887085 453.46741547 1584.7452417 453.99733093 1583.93786621 454.54330444 C1579.90751745 457.26885479 1575.87750371 459.99489993 1571.84765625 462.72119141 C1567.09757845 465.93443025 1562.34592742 469.14533615 1557.59375 472.35546875 C1556.82564499 472.87433151 1556.05753998 473.39319427 1555.26615906 473.92778015 C1553.72011672 474.97213262 1552.17407079 476.01647976 1550.62802124 477.06082153 C1538.08213695 485.53580406 1525.53961382 494.01574289 1513 502.5 C1501.23184075 510.46229376 1489.46098024 518.4205761 1477.6875 526.375 C1476.53633194 527.15275787 1476.53633194 527.15275787 1475.36190796 527.94622803 C1469.12684245 532.15873679 1462.89161048 536.37099912 1456.65637207 540.58325195 C1451.20833717 544.26371986 1445.7603677 547.94428461 1440.3125 551.625 C1439.16096939 552.40299957 1439.16096939 552.40299957 1437.98617554 553.19671631 C1426.98823442 560.62737856 1415.99306782 568.06213029 1405 575.5 C1393.23184075 583.46229376 1381.46098024 591.4205761 1369.6875 599.375 C1368.92005463 599.89350525 1368.15260925 600.4120105 1367.36190796 600.94622803 C1361.12684245 605.15873679 1354.89161048 609.37099912 1348.65637207 613.58325195 C1343.20833717 617.26371986 1337.7603677 620.94428461 1332.3125 624.625 C1331.54481293 625.14366638 1330.77712585 625.66233276 1329.98617554 626.19671631 C1318.98823442 633.62737856 1307.99306782 641.06213029 1297 648.5 C1280.56264191 659.62145671 1264.11856231 670.73295007 1247.67333984 681.84277344 C1243.02818061 684.98091305 1238.38320175 688.11931954 1233.73828125 691.2578125 C1232.9757605 691.77303467 1232.21323975 692.28825684 1231.4276123 692.8190918 C1229.11840514 694.37939 1226.8092018 695.93969386 1224.5 697.5 C1214.43445593 704.30119432 1204.36887746 711.10233757 1194.30255127 717.90237427 C1190.44748648 720.5066487 1186.59275698 723.11141663 1182.73876953 725.71728516 C1175.71860127 730.46354611 1168.69638285 735.20663004 1161.66453552 739.93557739 C1158.49126609 742.07009984 1155.3196744 744.2071071 1152.14828491 746.34442139 C1150.64570416 747.35609306 1149.14231973 748.3665722 1147.63809204 749.37579346 C1145.56657709 750.76574515 1143.49784868 752.1597524 1141.4296875 753.5546875 C1140.51371544 754.16694183 1140.51371544 754.16694183 1139.57923889 754.79156494 C1136.80677899 756.66715252 1134.24398527 758.50258108 1132 761 C1133.02540894 761.68098755 1133.02540894 761.68098755 1134.0715332 762.37573242 C1150.65366148 773.39470138 1167.18734474 784.48364152 1183.6875 795.625 C1195.27172867 803.44693662 1206.85840644 811.26362686 1218.5 819 C1230.14159373 826.73637324 1241.72825333 834.55309003 1253.3125 842.375 C1265.51931721 850.61722787 1277.7336663 858.84656932 1290 867 C1303.21609464 875.78473667 1316.37102039 884.65911115 1329.52294922 893.53955078 C1341.17861164 901.40899178 1352.85019832 909.25184934 1364.56323242 917.03564453 C1376.19654682 924.77692767 1387.77052971 932.60611278 1399.3515625 940.42529297 C1410.04815027 947.64659474 1420.75102449 954.85686704 1431.5 962 C1444.15936276 970.41266326 1456.75431889 978.91999647 1469.3515625 987.42529297 C1480.04815031 994.64659476 1490.751027 1001.85686324 1501.5 1009 C1513.14159643 1016.73636915 1524.72825337 1024.55309006 1536.3125 1032.375 C1548.51931721 1040.61722787 1560.7336663 1048.84656932 1573 1057 C1586.20903573 1065.78004461 1599.35728666 1074.64917392 1612.50180054 1083.52545166 C1624.63557958 1091.71862067 1636.78613804 1099.8842854 1648.98486328 1107.98046875 C1654.16666736 1111.42453818 1659.32564976 1114.89731598 1664.453125 1118.421875 C1665.48332764 1119.12973145 1666.51353027 1119.83758789 1667.57495117 1120.56689453 C1669.51303614 1121.90203029 1671.44827769 1123.24130664 1673.38012695 1124.58544922 C1674.22534912 1125.1682666 1675.07057129 1125.75108398 1675.94140625 1126.3515625 C1676.68076416 1126.86541504 1677.42012207 1127.37926758 1678.18188477 1127.90869141 C1679.93238472 1129.17154938 1679.93238472 1129.17154938 1682 1129 C1682 884.8 1682 640.6 1682 389 C1679.49051316 389 1676.48820331 391.91506742 1674.38671875 393.3203125 Z " fill="#FFFFFF" transform="translate(48,273)"/>
</svg>
